<svg xmlns="http://www.w3.org/2000/svg" width="75px" height="75px" viewBox="0 0 550 500">
<path d="M0 0 C2.70057066 2.43031153 4.32877168 5.05677674 6.1171875 8.20703125 C6.71732666 9.25713379 7.31746582 10.30723633 7.93579102 11.38916016 C8.57572998 12.5188623 9.21566895 13.64856445 9.875 14.8125 C11.23338523 17.19271888 12.59531197 19.57090611 13.95703125 21.94921875 C14.47060432 22.8477356 14.47060432 22.8477356 14.99455261 23.7644043 C18.13250662 29.24870513 21.3365632 34.69213261 24.5625 40.125 C30.83863172 50.70894083 37.04213419 61.33429725 43.23388672 71.96777344 C46.15328022 76.9800581 49.07681168 81.98992787 52 87 C55.46590232 92.94078976 58.93138086 98.88182426 62.39453125 104.82421875 C68.74834042 115.72479044 75.11654957 126.61676957 81.5 137.5 C89.58588585 151.28573547 97.64162818 165.08890156 105.68847656 178.89746094 C112.61018665 190.77407819 119.54523025 202.64271958 126.5 214.5 C133.45044933 226.34991449 140.38105772 238.21125249 147.29833984 250.08056641 C150.19752025 255.05451179 153.09886195 260.02719628 156 265 C159.4658722 270.94080734 162.93138085 276.88182425 166.39453125 282.82421875 C172.48657108 293.2760682 178.5866697 303.72319868 184.70007324 314.16256714 C185.43773652 315.42243498 186.17512561 316.68246341 186.91223145 317.94265747 C190.26429737 323.67279671 193.61615657 329.40168469 197.078125 335.06640625 C197.50891357 335.7720874 197.93970215 336.47776855 198.38354492 337.20483398 C199.4586149 338.95580217 200.54325632 340.70088444 201.62890625 342.4453125 C203 345 203 345 203 348 C75.62 348 -51.76 348 -183 348 C-183 337.77 -183 327.54 -183 317 C-113.04 316.67 -43.08 316.34 29 316 C21.31957726 305.99989068 21.31957726 305.99989068 13.5625 296.0625 C12.63281059 294.88151192 11.70312314 293.70052229 10.7734375 292.51953125 C9.84898314 291.34633462 8.92450429 290.17315729 8 289 C1.36820714 280.58010452 -5.23250181 272.13690651 -11.80786133 263.67285156 C-15.35838894 259.10448985 -18.92068531 254.54583587 -22.5 250 C-27.29493471 243.91029064 -32.05358699 237.79279083 -36.80859375 231.671875 C-40.35890456 227.10386022 -43.92093702 222.54551618 -47.5 218 C-52.28606189 211.92155939 -57.04730378 205.82393038 -61.77563477 199.70043945 C-64.59037582 196.06162408 -67.43000927 192.45574488 -70.37109375 188.91796875 C-70.88994141 188.28568359 -71.40878906 187.65339844 -71.94335938 187.00195312 C-72.91263514 185.82488491 -73.8938178 184.6574835 -74.88867188 183.50195312 C-78.05054246 179.63426528 -78.05054246 179.63426528 -77.82617188 176.81860352 C-76.72590436 173.06488354 -75.1916644 169.54758597 -73.59765625 165.984375 C-73.24875839 165.19351501 -72.89986053 164.40265503 -72.54039001 163.58782959 C-71.38569177 160.97315913 -70.22404144 158.36163672 -69.0625 155.75 C-68.24621318 153.90453193 -67.43046679 152.05882472 -66.61523438 150.21289062 C-64.92022835 146.37602124 -63.22289479 142.54019425 -61.52392578 138.70507812 C-58.03306214 130.82040612 -54.57045229 122.92337085 -51.10787964 115.02624512 C-49.23995143 110.7668975 -47.36985792 106.50850074 -45.5 102.25 C-44.74998981 100.54167114 -43.9999898 98.83333781 -43.25 97.125 C-38.75 86.87500001 -38.75 86.87500001 -37.62519836 84.31297302 C-36.87451635 82.60307208 -36.12385517 80.89316199 -35.37321472 79.1832428 C-33.5088194 74.93631903 -31.64407312 70.68955008 -29.77856445 66.44311523 C-26.27670637 58.47086338 -22.77845842 50.49708104 -19.29196167 42.51809692 C-17.65307268 38.76799759 -16.01227693 35.01873391 -14.37133789 31.26953125 C-13.59304244 29.48983647 -12.81567134 27.70973711 -12.03930664 25.92919922 C-4.32282943 8.23315014 -4.32282943 8.23315014 0 0 Z "
          fill="#007CAA" transform="translate(309,95)"/>
    <path d="M0 0 C1.13208865 3.39626594 0.96222565 3.73381125 -0.43676758 6.82080078 C-0.7798848 7.59082428 -1.12300201 8.36084778 -1.47651672 9.15420532 C-1.86196152 9.99277069 -2.24740631 10.83133606 -2.64453125 11.6953125 C-3.23871101 13.01902359 -3.23871101 13.01902359 -3.84489441 14.36947632 C-5.15877843 17.29196751 -6.48582386 20.20829648 -7.8125 23.125 C-8.73486039 25.17201436 -9.65607029 27.21954747 -10.57617188 29.26757812 C-11.99258909 32.42020397 -13.40962108 35.57253336 -14.83010864 38.72332764 C-18.91885 47.79493544 -22.93016722 56.89899522 -26.91464233 66.01678467 C-33.96941684 82.1575692 -41.10559366 98.26137178 -48.27050781 114.35351562 C-54.22013056 127.71841107 -60.13028717 141.09982447 -66 154.5 C-72.70525298 169.80765976 -79.47302296 185.08660499 -86.27050781 200.35351562 C-92.5879432 214.54464454 -98.85691385 228.7561585 -105.08837891 242.98522949 C-112.20554074 259.23373872 -119.40503867 275.44515875 -126.62890625 291.64648438 C-127.04011719 292.56959412 -127.45132813 293.49270386 -127.875 294.44378662 C-128.64370126 296.16929496 -129.41318159 297.89445653 -130.18359375 299.61920166 C-130.52648437 300.3890741 -130.869375 301.15894653 -131.22265625 301.95214844 C-131.51922119 302.61680115 -131.81578613 303.28145386 -132.12133789 303.96624756 C-133.12608015 306.29182528 -134.05914062 308.64785154 -135 311 C-185.16 311 -235.32 311 -287 311 C-286.05125225 307.205009 -284.89450486 304.7919383 -282.96484375 301.43359375 C-282.32861084 300.32226074 -281.69237793 299.21092773 -281.03686523 298.06591797 C-280.33729549 296.85631882 -279.63750094 295.64684967 -278.9375 294.4375 C-278.21340815 293.17867176 -277.48953462 291.91971792 -276.76586914 290.66064453 C-271.23745173 281.06130779 -265.60114036 271.52718447 -259.93334961 262.00952148 C-255.39144512 254.3757284 -250.92351902 246.70293429 -246.5 239 C-241.40241923 230.12466992 -236.23302799 221.29614254 -231 212.5 C-225.16033238 202.68236292 -219.409822 192.81798641 -213.71704102 182.91455078 C-208.99748213 174.71075793 -204.22942127 166.53663627 -199.4375 158.375 C-199.07958374 157.76534393 -198.72166748 157.15568787 -198.35290527 156.52755737 C-196.92653308 154.09804312 -195.50014238 151.66853974 -194.0736084 149.23912048 C-188.93443549 140.48465676 -183.82618479 131.71213695 -178.71484375 122.94140625 C-176.94646793 119.90817848 -175.17656577 116.87584591 -173.40625 113.84375 C-172.81223389 112.82410156 -172.21821777 111.80445313 -171.60620117 110.75390625 C-170.41850309 108.72348732 -169.22343916 106.69735767 -168.02075195 104.67578125 C-165.296558 100.07583183 -162.70950676 95.50320186 -160.44921875 90.65625 C-154.15298483 77.57664119 -146.54372666 72.97322496 -133.34765625 67.49755859 C-129.28826327 65.68160786 -125.39001893 63.62943756 -121.46875 61.53515625 C-113.70373785 57.39306116 -105.87676085 53.39423334 -98 49.46875 C-96.86236206 48.90156754 -95.72472412 48.33438507 -94.5526123 47.75001526 C-89.85661564 45.41111213 -85.15873332 43.0760094 -80.4609375 40.74072266 C-68.51443278 34.7989259 -56.58688487 28.84163389 -44.80290222 22.58267212 C-35.88541658 17.85570765 -26.84855442 13.36981742 -17.8125 8.875 C-16.06826366 8.00540029 -14.32412269 7.13560927 -12.58007812 6.265625 C-8.38780707 4.17489185 -4.19428118 2.08669746 0 0 Z "
          fill="#009AD2" transform="translate(287,69)"/>
</svg>
