<?xml version="1.0" encoding="UTF-8"?>
<svg xmlns="http://www.w3.org/2000/svg" xmlns:xlink="http://www.w3.org/1999/xlink" width="150px" height="150px" viewBox="0 0 150 78" version="1.1">
<g id="surface1">
<path style=" stroke:none;fill-rule:nonzero;fill:rgb(0%,38.039216%,54.117647%);fill-opacity:1;" d="M 0 70.855469 L 4.941406 70.855469 L 4.941406 51.328125 L 12.59375 68.355469 C 13.492188 70.410156 14.730469 71.144531 17.152344 71.144531 C 19.578125 71.144531 20.765625 70.417969 21.667969 68.355469 L 29.320312 51.328125 L 29.320312 70.859375 L 34.261719 70.859375 L 34.261719 51.359375 C 34.261719 49.457031 33.5 48.539062 31.933594 48.0625 C 28.179688 46.890625 25.660156 47.90625 24.519531 50.441406 L 17.011719 67.246094 L 9.742188 50.433594 C 8.648438 47.898438 6.082031 46.882812 2.328125 48.054688 C 0.761719 48.53125 0 49.453125 0 51.355469 Z M 38.367188 54.957031 L 43.308594 54.957031 L 43.308594 65.71875 C 43.261719 66.300781 43.496094 67.675781 46.203125 67.714844 C 47.585938 67.738281 56.863281 67.714844 56.949219 67.714844 L 56.949219 54.902344 L 61.902344 54.902344 C 61.921875 54.902344 61.894531 72.375 61.894531 72.449219 C 61.921875 76.757812 56.554688 77.695312 54.078125 77.765625 L 38.476562 77.765625 L 38.476562 74.4375 L 54.109375 74.4375 C 57.289062 74.101562 56.914062 72.519531 56.914062 71.988281 L 56.914062 70.6875 L 46.410156 70.6875 C 41.523438 70.644531 38.410156 68.511719 38.375 66.054688 C 38.371094 65.835938 38.476562 55.0625 38.371094 54.957031 Z M 38.367188 54.957031 "/>
<path style=" stroke:none;fill-rule:nonzero;fill:rgb(89.411765%,55.686275%,0%);fill-opacity:1;" d="M 65.710938 70.855469 L 79.917969 70.855469 C 81.578125 70.855469 83.195312 70.503906 84.480469 69.902344 C 86.621094 68.917969 87.664062 67.585938 87.664062 65.84375 L 87.664062 62.230469 C 87.664062 60.800781 86.476562 59.472656 84.148438 58.582031 C 82.914062 58.105469 81.390625 57.855469 79.917969 57.855469 L 73.933594 57.855469 C 71.9375 57.855469 70.984375 57.25 70.75 55.917969 C 70.703125 55.761719 70.703125 55.625 70.703125 55.476562 L 70.703125 53.226562 C 70.703125 53.097656 70.703125 52.972656 70.75 52.8125 C 70.984375 51.796875 71.507812 51.511719 73.265625 51.347656 C 73.410156 51.347656 73.601562 51.3125 73.742188 51.3125 L 87.855469 51.3125 L 87.855469 48.015625 L 73.980469 48.015625 C 71.984375 48.015625 70.9375 48.144531 69.988281 48.429688 C 67.039062 49.347656 65.757812 50.816406 65.757812 53.351562 L 65.757812 56.238281 C 65.757812 58.457031 68.277344 60.359375 72.503906 60.804688 C 72.980469 60.835938 73.453125 60.867188 73.929688 60.867188 L 79.0625 60.867188 C 79.25 60.867188 79.441406 60.867188 79.585938 60.898438 C 81.152344 61.023438 81.816406 61.308594 82.292969 61.878906 C 82.585938 62.175781 82.671875 62.453125 82.671875 62.761719 L 82.671875 65.644531 C 82.671875 65.996094 82.4375 66.4375 81.960938 66.820312 C 81.53125 67.199219 80.820312 67.453125 79.871094 67.515625 C 79.679688 67.515625 79.539062 67.546875 79.347656 67.546875 L 65.710938 67.546875 Z M 118.492188 65.113281 C 118.492188 68.507812 121.007812 70.410156 126.09375 70.789062 C 126.566406 70.828125 127.042969 70.847656 127.519531 70.855469 L 140.398438 70.855469 L 140.398438 67.554688 L 127.425781 67.554688 C 124.527344 67.554688 123.433594 66.828125 123.433594 65.082031 L 123.433594 48.023438 L 118.492188 48.023438 Z M 90.816406 65.285156 L 90.816406 53.53125 C 90.816406 50.546875 92.910156 48.734375 97.054688 48.160156 C 97.496094 48.097656 97.941406 48.066406 98.386719 48.066406 L 107.769531 48.066406 C 108.230469 48.066406 108.691406 48.097656 109.148438 48.160156 C 113.292969 48.734375 115.386719 50.542969 115.386719 53.53125 L 115.386719 65.285156 C 115.386719 67.710938 114.496094 69.007812 112.445312 69.851562 L 117.3125 74.25 L 111.574219 74.25 L 107.636719 70.691406 L 103.671875 70.941406 L 98.386719 70.941406 C 97.484375 70.941406 96.53125 70.816406 95.484375 70.53125 C 92.332031 69.671875 90.816406 68.019531 90.816406 65.285156 Z M 96.152344 64.992188 C 96.152344 65.152344 96.199219 65.3125 96.246094 65.503906 C 96.539062 66.867188 97.816406 67.632812 99.761719 67.632812 L 104.25 67.632812 L 100.128906 63.90625 L 105.867188 63.90625 L 109.453125 67.15625 C 110.117188 66.800781 110.554688 66.261719 110.699219 65.566406 C 110.746094 65.40625 110.746094 65.25 110.746094 65.089844 L 110.746094 53.816406 C 110.746094 53.691406 110.746094 53.523438 110.699219 53.375 C 110.40625 52.101562 109.128906 51.371094 107.222656 51.371094 L 99.769531 51.371094 C 97.574219 51.371094 96.152344 52.324219 96.152344 53.816406 L 96.152344 65.003906 Z M 96.152344 64.992188 "/>
<path style=" stroke:none;fill-rule:nonzero;fill:rgb(0%,38.039216%,54.117647%);fill-opacity:1;" d="M 144.742188 42.554688 C 141.707031 42.472656 139.386719 42.753906 137.402344 43.589844 C 136.839844 43.828125 135.941406 43.835938 135.847656 44.542969 C 136.15625 44.867188 136.207031 45.351562 136.453125 45.753906 C 136.925781 46.519531 137.726562 47.546875 138.4375 48.085938 C 139.21875 48.675781 140.019531 49.304688 140.859375 49.816406 C 142.34375 50.722656 144.003906 51.242188 145.4375 52.152344 C 146.277344 52.6875 147.117188 53.359375 147.941406 53.964844 C 148.347656 54.265625 148.621094 54.730469 149.148438 54.917969 L 149.148438 54.828125 C 148.871094 54.476562 148.800781 53.988281 148.542969 53.621094 L 147.421875 52.496094 C 146.324219 51.03125 144.929688 49.757812 143.449219 48.691406 C 142.265625 47.84375 139.621094 46.695312 139.128906 45.320312 L 139.042969 45.234375 C 139.882812 45.136719 140.863281 44.835938 141.636719 44.628906 C 142.933594 44.28125 144.09375 44.371094 145.4375 44.023438 L 147.25 43.503906 L 147.25 43.160156 C 146.574219 42.460938 146.089844 41.539062 145.351562 40.910156 C 143.417969 39.261719 141.304688 37.617188 139.132812 36.242188 C 137.925781 35.480469 136.4375 34.984375 135.160156 34.339844 C 134.730469 34.121094 133.972656 34.007812 133.691406 33.648438 C 133.019531 32.789062 132.652344 31.703125 132.136719 30.714844 C 131.050781 28.625 129.988281 26.34375 129.027344 24.144531 C 128.371094 22.644531 127.941406 21.164062 127.125 19.820312 C 123.203125 13.367188 118.980469 9.472656 112.441406 5.644531 C 111.050781 4.828125 109.375 4.507812 107.605469 4.085938 L 104.753906 3.914062 C 104.175781 3.671875 103.570312 2.960938 103.027344 2.617188 C 100.859375 1.246094 95.300781 -1.734375 93.699219 2.175781 C 92.683594 4.648438 95.210938 7.0625 96.117188 8.316406 C 96.75 9.195312 97.5625 10.179688 98.015625 11.167969 C 98.3125 11.816406 98.367188 12.46875 98.621094 13.15625 C 99.25 14.84375 99.796875 16.691406 100.609375 18.257812 C 101.019531 19.050781 101.46875 19.882812 101.988281 20.59375 C 102.308594 21.027344 102.855469 21.21875 102.941406 21.890625 C 102.40625 22.636719 102.375 23.796875 102.074219 24.742188 C 100.726562 29.003906 101.234375 34.296875 103.199219 37.453125 C 103.800781 38.417969 105.21875 40.496094 107.171875 39.699219 C 108.878906 39.003906 108.488281 36.847656 108.984375 34.945312 C 109.09375 34.511719 109.027344 34.195312 109.246094 33.90625 L 109.246094 33.996094 L 110.800781 37.105469 C 111.949219 38.960938 113.992188 40.898438 115.722656 42.207031 C 116.621094 42.886719 117.335938 44.058594 118.488281 44.457031 L 118.488281 44.371094 L 118.402344 44.371094 C 118.175781 44.019531 117.824219 43.875 117.535156 43.59375 C 116.859375 42.929688 116.109375 42.105469 115.550781 41.34375 C 113.976562 39.207031 112.585938 36.867188 111.316406 34.429688 C 110.710938 33.265625 110.1875 31.980469 109.675781 30.796875 C 109.480469 30.339844 109.484375 29.652344 109.074219 29.414062 C 108.515625 30.28125 107.691406 30.984375 107.257812 32.007812 C 106.566406 33.644531 106.476562 35.640625 106.222656 37.714844 C 106.070312 37.769531 106.136719 37.730469 106.050781 37.800781 C 104.847656 37.511719 104.421875 36.269531 103.976562 35.207031 C 102.847656 32.515625 102.636719 28.1875 103.632812 25.089844 C 103.886719 24.292969 105.050781 21.769531 104.582031 21.027344 C 104.355469 20.289062 103.613281 19.855469 103.199219 19.296875 C 102.6875 18.601562 102.171875 17.683594 101.816406 16.878906 C 100.890625 14.78125 100.457031 12.425781 99.484375 10.308594 C 99.019531 9.292969 98.230469 8.269531 97.585938 7.375 C 96.867188 6.378906 96.066406 5.640625 95.511719 4.441406 C 95.3125 4.011719 95.046875 3.328125 95.339844 2.886719 C 95.394531 2.625 95.597656 2.425781 95.859375 2.367188 C 96.359375 1.980469 97.753906 2.496094 98.277344 2.710938 C 99.660156 3.289062 100.816406 3.835938 101.992188 4.613281 C 102.554688 4.980469 103.125 5.710938 103.804688 5.914062 L 104.582031 5.914062 C 105.796875 6.191406 107.160156 6 108.292969 6.34375 C 110.300781 6.957031 112.101562 7.90625 113.734375 8.9375 C 118.714844 12.085938 122.785156 16.5625 125.570312 21.914062 C 126.019531 22.773438 126.210938 23.597656 126.605469 24.507812 C 127.402344 26.339844 128.40625 28.242188 129.199219 30.039062 C 129.988281 31.835938 130.757812 33.648438 131.875 35.140625 C 132.460938 35.925781 134.730469 36.347656 135.761719 36.785156 C 136.484375 37.089844 137.667969 37.40625 138.355469 37.820312 C 139.660156 38.609375 140.929688 39.550781 142.15625 40.414062 C 142.769531 40.847656 144.652344 41.796875 144.746094 42.578125 Z M 144.742188 42.554688 "/>
<path style=" stroke:none;fill-rule:evenodd;fill:rgb(0%,38.039216%,54.117647%);fill-opacity:1;" d="M 106.136719 9.613281 C 105.5 9.601562 105.054688 9.683594 104.582031 9.789062 L 104.582031 9.875 L 104.667969 9.875 C 104.96875 10.496094 105.5 10.894531 105.875 11.429688 L 106.738281 13.246094 L 106.824219 13.160156 C 107.359375 12.78125 107.605469 12.179688 107.601562 11.257812 C 107.386719 11.03125 107.355469 10.75 107.171875 10.476562 C 106.921875 10.117188 106.4375 9.914062 106.132812 9.613281 Z M 106.136719 9.613281 "/>
<path style=" stroke:none;fill-rule:evenodd;fill:rgb(89.411765%,55.686275%,0%);fill-opacity:1;" d="M 142.714844 67.460938 C 142.714844 69.640625 144.433594 71.105469 146.359375 71.105469 C 148.28125 71.105469 150 69.640625 150 67.460938 C 150 65.285156 148.28125 63.816406 146.359375 63.816406 C 144.433594 63.816406 142.714844 65.285156 142.714844 67.460938 Z M 149.183594 67.460938 C 149.183594 69.113281 147.921875 70.347656 146.355469 70.347656 C 144.773438 70.347656 143.527344 69.113281 143.527344 67.460938 C 143.527344 65.808594 144.773438 64.574219 146.355469 64.574219 C 147.921875 64.574219 149.183594 65.808594 149.183594 67.460938 Z M 147.335938 69.542969 L 148.152344 69.542969 L 146.960938 67.714844 C 147.601562 67.648438 148.085938 67.335938 148.085938 66.578125 C 148.085938 65.730469 147.550781 65.382812 146.523438 65.382812 L 144.898438 65.382812 L 144.898438 69.542969 L 145.597656 69.542969 L 145.597656 67.746094 L 146.25 67.746094 Z M 145.597656 67.160156 L 145.597656 65.964844 L 146.40625 65.964844 C 146.820312 65.964844 147.328125 66.042969 147.328125 66.53125 C 147.328125 67.113281 146.871094 67.160156 146.347656 67.160156 Z M 145.597656 67.160156 "/>
</g>
</svg>
