<?xml version="1.0" standalone="no"?>
<!DOCTYPE svg PUBLIC "-//W3C//DTD SVG 20010904//EN"
 "http://www.w3.org/TR/2001/REC-SVG-20010904/DTD/svg10.dtd">
<svg version="1.0" xmlns="http://www.w3.org/2000/svg"
 width="395.000000pt" height="395.000000pt" viewBox="0 0 395.000000 395.000000"
 preserveAspectRatio="xMidYMid meet">
<metadata>
Created by potrace 1.14, written by Peter Selinger 2001-2017
</metadata>
<g transform="translate(0.000000,395.000000) scale(0.100000,-0.100000)"
fill="#000000" stroke="none">
<path d="M0 1975 l0 -1975 928 1 c596 1 897 5 843 10 -746 78 -1400 595 -1650
1303 -60 169 -111 424 -111 551 l0 45 145 0 c131 0 145 -2 145 -17 0 -62 25
-216 50 -318 164 -661 691 -1147 1370 -1262 130 -22 394 -21 520 1 388 68 693
232 963 516 240 252 401 591 438 920 6 52 13 110 15 128 l5 32 144 0 145 0 0
60 c0 41 -4 60 -12 61 -7 0 -72 1 -145 2 l-132 0 -5 41 c-3 23 -8 68 -11 101
-17 167 -82 379 -167 549 -236 471 -674 800 -1203 903 -141 27 -464 25 -611
-4 -656 -133 -1166 -623 -1319 -1266 -20 -86 -45 -257 -45 -311 0 -13 -21 -15
-142 -13 l-143 2 2 86 c1 48 9 129 18 180 95 560 427 1052 914 1353 275 170
569 261 936 290 22 1 -393 3 -922 4 l-963 2 0 -1975z"/>
<path d="M2090 3943 c252 -15 532 -89 755 -200 221 -110 372 -221 551 -404
303 -311 493 -712 543 -1149 5 -47 9 270 10 843 l1 917 -957 -2 c-527 -1 -933
-3 -903 -5z"/>
<path d="M1693 3880 c-634 -99 -1168 -492 -1447 -1065 -95 -193 -166 -438
-181 -615 -3 -41 -8 -85 -11 -97 -4 -23 -3 -23 100 -23 l104 0 11 98 c25 199
78 378 167 555 96 192 192 324 345 473 330 321 734 484 1199 485 382 1 719
-110 1030 -339 105 -78 292 -270 373 -382 83 -117 185 -320 231 -460 32 -95
66 -256 81 -382 l6 -48 101 0 101 0 -7 87 c-21 271 -145 624 -305 863 -296
445 -759 749 -1286 845 -144 26 -461 29 -612 5z"/>
<path d="M3936 1743 c-10 -109 -50 -284 -97 -420 -138 -399 -412 -752 -769
-992 -244 -163 -558 -280 -848 -315 -107 -13 -40 -14 806 -15 l922 -1 0 910
c0 501 -2 910 -4 910 -2 0 -6 -35 -10 -77z"/>
</g>
</svg>
